<svg height="512" viewBox="0 0 128 128" width="512" xmlns="http://www.w3.org/2000/svg"><g id="number"><text fill="#24253a" font-family="MyriadPro-Regular, Myriad Pro" font-size="40" letter-spacing=".002em" transform="translate(56.724 -738.265)">6<tspan x="-10.3" y="228">16</tspan><tspan x="-10.3" y="456">26</tspan><tspan x="-10.3" y="684">36</tspan><tspan x="-10.3" y="912">46</tspan><tspan x="-10.3" y="1140">56</tspan><tspan x="-10.3" y="1368">66</tspan><tspan x="-10.3" y="1596">76</tspan><tspan x="-10.3" y="1824">86</tspan><tspan x="-10.3" y="2052">96</tspan><tspan x="-20.599" y="2280">106</tspan><tspan x="-20.599" y="2508">116</tspan><tspan x="-20.599" y="2736">126</tspan><tspan x="-20.599" y="2964">136</tspan><tspan x="-20.599" y="3192">146</tspan><tspan x="-20.599" y="3420">156</tspan><tspan x="-20.599" y="3648">166</tspan><tspan x="-20.599" y="3876">176</tspan><tspan x="-20.599" y="4104">186</tspan><tspan x="-20.599" y="4332">196</tspan><tspan x="-20.599" y="4560">206</tspan><tspan x="-20.599" y="4788">216</tspan><tspan x="-20.599" y="5016">226</tspan><tspan x="-20.599" y="5244">236</tspan><tspan x="-20.599" y="5472">246</tspan></text></g><g id="icon"><path d="m79.518 127h-55.44v-106.454h79.843v84.53" fill="#d9e2e9"/><path d="m103.92 104.55v.53l-24.4 21.92h-55.44v-106.45h5.18v101.26h55.44z" fill="#c1cdd3"/><path d="m79.519 128h-55.441a1 1 0 0 1 -1-1v-106.454a1 1 0 0 1 1-1h79.843a1 1 0 0 1 1 1v84.53a1 1 0 0 1 -2 0v-83.53h-77.843v104.454h54.44a1 1 0 0 1 0 2z" fill="#2f3a5a"/><path d="m103.922 105.081h-24.406v21.915z" fill="#d9e2e9"/><g fill="#2f3a5a"><path d="m79.516 128a1 1 0 0 1 -1-1v-21.919a1 1 0 0 1 1-1h24.406a1 1 0 0 1 .668 1.744l-24.406 21.915a1 1 0 0 1 -.668.26zm1-21.915v18.673l20.8-18.673z"/><path d="m45.229 41.092a9.077 9.077 0 0 1 -9.067-9.067v-25.378a6.647 6.647 0 1 1 13.294 0v13.9a1 1 0 0 1 -2 0v-13.9a4.647 4.647 0 1 0 -9.294 0v25.378a7.067 7.067 0 1 0 14.135 0v-24.249a1 1 0 0 1 2 0v24.249a9.077 9.077 0 0 1 -9.068 9.067z"/><path d="m42.13 21.546a1 1 0 0 1 -1-1v-13.221a1 1 0 0 1 2 0v13.221a1 1 0 0 1 -1 1z"/><path d="m91.719 53.487h-54.558a1 1 0 0 1 0-2h54.558a1 1 0 0 1 0 2z"/><path d="m91.719 63.813h-54.558a1 1 0 0 1 0-2h54.558a1 1 0 0 1 0 2z"/><path d="m91.719 74.14h-54.558a1 1 0 0 1 0-2h54.558a1 1 0 0 1 0 2z"/><path d="m91.719 84.467h-54.558a1 1 0 0 1 0-2h54.558a1 1 0 0 1 0 2z"/><path d="m91.719 94.794h-54.558a1 1 0 0 1 0-2h54.558a1 1 0 0 1 0 2z"/></g></g></svg>